HIERARCHY
ROOT Hips
{
	OFFSET 0.00000 0.00000 0.00000
	CHANNELS 6 Xposition Yposition Zposition Zrotation Yrotation Xrotation 
	JOINT LHipJoint
	{
		OFFSET 0 0 0
		CHANNELS 3 Zrotation Yrotation Xrotation
		JOINT LeftUpLeg
		{
			OFFSET 1.28858 -1.83292 1.03970
			CHANNELS 3 Zrotation Yrotation Xrotation
			JOINT LeftLeg
			{
				OFFSET 2.47846 -6.80952 0.00000
				CHANNELS 3 Zrotation Yrotation Xrotation
				JOINT LeftFoot
				{
					OFFSET 2.75274 -7.56311 0.00000
					CHANNELS 3 Zrotation Yrotation Xrotation
					JOINT LeftToeBase
					{
						OFFSET 0.12848 -0.35301 1.68223
						CHANNELS 3 Zrotation Yrotation Xrotation
						End Site
						{
							OFFSET 0.00000 -0.00000 0.87311
						}
					}
				}
			}
		}
	}
	JOINT RHipJoint
	{
		OFFSET 0 0 0
		CHANNELS 3 Zrotation Yrotation Xrotation
		JOINT RightUpLeg
		{
			OFFSET -1.31183 -1.83292 1.03970
			CHANNELS 3 Zrotation Yrotation Xrotation
			JOINT RightLeg
			{
				OFFSET -2.44740 -6.72417 0.00000
				CHANNELS 3 Zrotation Yrotation Xrotation
				JOINT RightFoot
				{
					OFFSET -2.67343 -7.34519 0.00000
					CHANNELS 3 Zrotation Yrotation Xrotation
					JOINT RightToeBase
					{
						OFFSET -0.16914 -0.46471 1.77626
						CHANNELS 3 Zrotation Yrotation Xrotation
						End Site
						{
							OFFSET -0.00000 -0.00000 0.92777
						}
					}
				}
			}
		}
	}
	JOINT LowerBack
	{
		OFFSET 0 0 0
		CHANNELS 3 Zrotation Yrotation Xrotation
		JOINT Spine
		{
			OFFSET 0.01249 2.14252 0.03842
			CHANNELS 3 Zrotation Yrotation Xrotation
			JOINT Spine1
			{
				OFFSET -0.02957 2.14199 -0.03751
				CHANNELS 3 Zrotation Yrotation Xrotation
				JOINT Neck
				{
					OFFSET 0 0 0
					CHANNELS 3 Zrotation Yrotation Xrotation
					JOINT Neck1
					{
						OFFSET -0.01678 1.65709 -0.05476
						CHANNELS 3 Zrotation Yrotation Xrotation
						JOINT Head
						{
							OFFSET 0.07912 1.58331 -0.11843
							CHANNELS 3 Zrotation Yrotation Xrotation
							End Site
							{
								OFFSET 0.03298 1.73940 -0.04271
							}
						}
					}
				}
				JOINT LeftShoulder
				{
					OFFSET 0 0 0
					CHANNELS 3 Zrotation Yrotation Xrotation
					JOINT LeftArm
					{
						OFFSET 3.39556 1.16496 0.08673
						CHANNELS 3 Zrotation Yrotation Xrotation
						JOINT LeftForeArm
						{
							OFFSET 5.23910 -0.00000 -0.00000
							CHANNELS 3 Zrotation Yrotation Xrotation
							JOINT LeftHand
							{
								OFFSET 3.31467 -0.00000 0.00000
								CHANNELS 3 Zrotation Yrotation Xrotation
								JOINT LeftFingerBase
								{
									OFFSET 0 0 0
									CHANNELS 3 Zrotation Yrotation Xrotation
									JOINT LeftHandIndex1
									{
										OFFSET 0.96590 -0.00000 0.00000
										CHANNELS 3 Zrotation Yrotation Xrotation
										End Site
										{
											OFFSET 0.77873 -0.00000 0.00000
										}
									}
								}
								JOINT LThumb
								{
									OFFSET 0 0 0
									CHANNELS 3 Zrotation Yrotation Xrotation
									End Site
									{
										OFFSET 0.79062 -0.00000 0.79062
									}
								}
							}
						}
					}
				}
				JOINT RightShoulder
				{
					OFFSET 0 0 0
					CHANNELS 3 Zrotation Yrotation Xrotation
					JOINT RightArm
					{
						OFFSET -3.27193 1.31331 0.33940
						CHANNELS 3 Zrotation Yrotation Xrotation
						JOINT RightForeArm
						{
							OFFSET -5.30252 -0.00000 0.00000
							CHANNELS 3 Zrotation Yrotation Xrotation
							JOINT RightHand
							{
								OFFSET -3.67875 -0.00000 0.00000
								CHANNELS 3 Zrotation Yrotation Xrotation
								JOINT RightFingerBase
								{
									OFFSET 0 0 0
									CHANNELS 3 Zrotation Yrotation Xrotation
									JOINT RightHandIndex1
									{
										OFFSET -0.59481 -0.00000 0.00000
										CHANNELS 3 Zrotation Yrotation Xrotation
										End Site
										{
											OFFSET -0.47955 -0.00000 0.00000
										}
									}
								}
								JOINT RThumb
								{
									OFFSET 0 0 0
									CHANNELS 3 Zrotation Yrotation Xrotation
									End Site
									{
										OFFSET -0.48687 -0.00000 0.48687
									}
								}
							}
						}
					}
				}
			}
		}
	}
}
MOTION
Frames: 5
Frame Time: .0083333
7.1143 16.4017 -18.7835 -336.9760 68.1111 -330.5980 0.0000 0.0000 0.0000 6.1400 -8.0606 -19.5615 10.0693 17.4487 59.7198 0.6390 13.0309 15.8112 1.2131 6.9868 19.6763 0.0000 0.0000 0.0000 24.4584 2.8498 -34.7211 -7.6241 -15.8357 51.1970 -5.9303 -7.7068 -48.9272 -1.2075 -6.9713 19.6303 -5.3124 -3.8656 5.1544 -0.8365 -5.4126 1.1689 2.4140 -2.6774 -1.2639 -9.4122 -14.6070 3.7928 20.5644 -19.0748 -7.9200 7.4266 -9.9366 0.0591 0.0000 -0.0000 0.0000 -46.4459 17.4979 78.0758 16.1156 -25.6771 -3.6959 -0.0000 -0.0000 1.7914 16.7735 -18.4216 -5.4409 -7.1250 0.0000 -0.0000 -7.4023 10.9224 5.9165 0.0000 -0.0000 0.0000 65.0250 0.0523 29.1461 -78.8270 59.5230 -50.3394 0.0000 -0.0000 -1.1335 -15.1107 -30.6960 7.8483 7.1250 -0.0000 -0.0000 19.0798 -60.5487 -7.3899
7.1448 16.4153 -18.6095 -338.5280 67.0446 -332.5400 0.0000 0.0000 0.0000 6.2501 -9.7978 -20.6231 11.0829 17.9754 63.0504 1.4760 9.9780 21.8376 0.4528 4.3169 11.9699 0.0000 0.0000 0.0000 25.4061 2.7843 -33.1461 -7.3547 -15.6235 50.2034 -5.7718 -7.3223 -48.1721 -1.1505 -6.8105 19.1550 -5.3410 -4.0301 5.3304 -0.6109 -5.6412 1.1827 2.6840 -2.7917 -1.3039 -9.5430 -14.3907 3.7477 20.1539 -18.8721 -7.3753 7.3129 -9.8037 0.1600 -0.0000 -0.0000 0.0000 -45.7989 18.2447 78.1720 15.2803 -24.5352 -3.3415 -0.0000 -0.0000 1.9822 13.4536 -17.4262 -4.0977 -7.1250 0.0000 -0.0000 -9.5557 12.2781 7.4113 -0.0000 -0.0000 0.0000 61.6718 2.0478 29.9273 -86.6866 59.9585 -57.1309 0.0000 -0.0000 -1.0160 -16.1071 -31.2068 8.5094 7.1250 -0.0000 -0.0000 18.4039 -61.2711 -7.4342
7.1803 16.4510 -18.4526 -340.1860 65.9672 -334.5710 0.0000 0.0000 0.0000 6.2396 -11.4132 -21.7366 12.1513 18.4539 66.4675 2.0695 9.2765 25.8259 1.0755 6.5921 18.5125 0.0000 0.0000 0.0000 26.3058 2.6650 -31.4663 -7.0736 -15.3935 49.1520 -5.6702 -6.2808 -47.3852 -1.2659 -7.1318 20.1063 -5.0100 -4.2307 5.5959 -0.4030 -5.9036 1.1868 2.7499 -2.9209 -1.4370 -10.0898 -14.0446 3.5843 20.1842 -18.5216 -6.6814 7.3777 -9.5894 0.3914 0.0000 -0.0000 0.0000 -45.1465 18.9978 78.0458 14.5215 -23.4752 -3.0327 -0.0000 -0.0000 1.7428 9.7313 -14.5054 -2.4596 -7.1250 0.0000 -0.0000 -12.0598 15.4854 8.5974 0.0000 -0.0000 0.0000 58.0259 4.6916 30.4255 -93.0600 59.9646 -62.6497 0.0000 -0.0000 -0.9060 -17.1362 -31.5080 9.1539 7.1250 -0.0000 -0.0000 17.5173 -61.8113 -7.2877
7.2108 16.4969 -18.2936 -341.8130 64.4205 -336.4240 0.0000 0.0000 0.0000 6.0423 -12.3987 -22.9911 13.2801 18.8810 69.9933 2.3519 9.6695 27.5746 1.8479 8.5418 24.3723 0.0000 0.0000 0.0000 27.0510 3.1638 -29.6063 -6.7714 -15.1363 48.0044 -5.6363 -4.8518 -46.7420 -1.5436 -7.8426 22.2369 -4.7003 -4.1337 5.7413 -0.4276 -5.7676 1.1551 2.5627 -2.8497 -1.5953 -9.8939 -13.8810 3.3841 19.9256 -18.3618 -6.0373 7.2445 -9.4772 0.5385 0.0000 0.0000 0.0000 -43.8458 19.4146 78.2806 13.8513 -22.5217 -2.7709 -0.0000 -0.0000 0.9023 5.8158 -11.0009 -1.1135 -7.1250 0.0000 -0.0000 -14.9116 19.1085 9.5352 0.0000 0.0000 0.0000 54.9369 7.0630 29.9717 -98.3357 59.7358 -67.2125 0.0000 -0.0000 -0.5718 -17.8337 -30.8435 9.3661 7.1250 -0.0000 -0.0000 16.2362 -61.3492 -6.5606
7.2390 16.5457 -18.1107 -343.3860 62.4298 -338.1520 0.0000 0.0000 0.0000 5.7596 -12.7166 -24.2425 14.4097 19.2336 73.4519 2.4421 9.0661 28.1196 1.5122 7.7660 22.0056 0.0000 0.0000 0.0000 27.7686 3.4466 -27.8728 -6.4387 -14.8404 46.7181 -5.4585 -3.6712 -45.6264 -1.7343 -8.2892 23.5960 -4.8225 -3.9511 5.7015 -0.3532 -5.5310 1.1218 2.6917 -2.7312 -1.6067 -9.6496 -13.7134 3.0571 19.3762 -18.2007 -5.3157 7.0078 -9.3518 0.6944 -0.0000 0.0000 0.0000 -42.9392 19.9880 77.5733 13.0441 -21.3518 -2.4693 -0.0000 -0.0000 0.2860 2.0113 -8.4075 -0.2942 -7.1250 0.0000 -0.0000 -17.7979 21.6836 10.4670 -0.0000 0.0000 0.0000 51.9209 9.4822 29.4857 -102.7095 59.3808 -70.9839 0.0000 -0.0000 -0.1460 -18.7997 -29.9746 9.6525 7.1250 -0.0000 -0.0000 14.5479 -60.7440 -5.6517
